<svg width="208" height="115" viewBox="0 0 208 115" fill="none" xmlns="http://www.w3.org/2000/svg">
<path d="M32.352 114.144C26.272 114.144 20.768 113.12 15.84 111.072C10.976 109.024 7.13599 106.048 4.31999 102.144C1.43999 98.24 -5.72205e-06 93.536 -5.72205e-06 88.032C-5.72205e-06 82.912 0.991994 78.72 2.97599 75.456C4.95999 72.128 7.13599 69.632 9.50399 67.968C10.848 67.008 12.096 66.336 13.248 65.952C14.4 65.504 15.168 65.28 15.552 65.28C15.936 65.28 16.128 65.44 16.128 65.76C16.128 66.08 15.968 66.336 15.648 66.528C12.32 68.512 9.75999 71.328 7.96799 74.976C6.23999 78.624 5.37599 82.624 5.37599 86.976C5.37599 91.968 6.52799 96.288 8.83199 99.936C11.136 103.648 14.336 106.496 18.432 108.48C22.528 110.464 27.264 111.456 32.64 111.456C41.728 111.456 50.4 107.872 58.656 100.704C66.912 93.536 74.88 83.552 82.56 70.752C85.44 65.824 88.16 60.736 90.72 55.488C93.28 50.24 95.712 45.056 98.016 39.936C100.32 34.944 102.496 30.464 104.544 26.496C106.656 22.464 108.48 19.072 110.016 16.32C111.616 13.568 112.768 11.648 113.472 10.56C97.28 12.736 84.736 16.192 75.84 20.928C67.008 25.664 62.592 31.744 62.592 39.168C62.592 43.008 63.584 45.888 65.568 47.808C67.552 49.664 69.824 50.592 72.384 50.592C74.88 50.592 77.376 49.792 79.872 48.192C82.432 46.592 84.544 44.384 86.208 41.568C87.936 38.688 88.8 35.36 88.8 31.584C88.8 29.728 88.224 28.224 87.072 27.072C87.072 26.432 87.392 26.112 88.032 26.112C88.8 26.112 89.472 26.688 90.048 27.84C90.688 28.992 91.008 30.432 91.008 32.16C91.008 36.448 89.984 40.16 87.936 43.296C85.952 46.368 83.392 48.736 80.256 50.4C77.184 52.064 74.016 52.896 70.752 52.896C68.256 52.896 65.888 52.352 63.648 51.264C61.408 50.176 59.552 48.512 58.08 46.272C56.672 44.032 55.968 41.248 55.968 37.92C55.968 33.568 57.408 29.792 60.288 26.592C63.232 23.328 67.328 20.544 72.576 18.24C77.888 15.936 84.128 13.952 91.296 12.288C98.528 10.624 106.464 9.18401 115.104 7.96801C116.896 5.47201 118.528 3.52001 120 2.11201C121.536 0.704012 123.2 1.14441e-05 124.992 1.14441e-05C126.016 1.14441e-05 126.816 0.256012 127.392 0.768013C128.032 1.28001 128.352 2.04801 128.352 3.07201C128.352 4.54401 127.744 5.76001 126.528 6.72001C125.312 7.61601 123.776 8.35201 121.92 8.92801C120.064 9.44001 118.208 9.85601 116.352 10.176C113.984 14.272 111.904 18.496 110.112 22.848C108.384 27.136 106.752 31.552 105.216 36.096C103.744 40.576 102.144 45.184 100.416 49.92C98.752 54.592 96.768 59.392 94.464 64.32C89.664 74.496 84.128 83.296 77.856 90.72C71.584 98.208 64.64 103.968 57.024 108C49.408 112.096 41.184 114.144 32.352 114.144ZM118.08 7.77601C120.704 7.32801 122.464 6.78401 123.36 6.14401C124.256 5.44001 124.704 4.80001 124.704 4.22401C124.704 3.45601 124.32 3.07201 123.552 3.07201C122.848 3.07201 121.984 3.61601 120.96 4.70401C120 5.72801 119.04 6.75201 118.08 7.77601ZM112.648 77.856C110.28 77.856 108.136 77.088 106.216 75.552C104.36 74.016 103.432 71.68 103.432 68.544C103.432 65.92 104.008 63.136 105.16 60.192C106.376 57.248 107.944 54.496 109.864 51.936C111.848 49.312 114.024 47.2 116.392 45.6C118.824 43.936 121.256 43.104 123.688 43.104C124.904 43.104 126.088 43.456 127.24 44.16C128.392 44.864 128.968 46.08 128.968 47.808C128.968 49.408 128.36 51.168 127.144 53.088C125.928 55.008 124.2 56.8 121.96 58.464C121 59.168 119.784 59.84 118.312 60.48C116.84 61.12 115.368 61.664 113.896 62.112C112.424 62.496 111.208 62.688 110.248 62.688C109.928 63.456 109.608 64.48 109.288 65.76C109.032 67.04 108.904 68.352 108.904 69.696C108.904 71.296 109.224 72.736 109.864 74.016C110.504 75.296 111.688 75.936 113.416 75.936C115.528 75.936 117.48 75.328 119.272 74.112C121.128 72.896 122.76 71.36 124.168 69.504C125.64 67.648 126.888 65.76 127.912 63.84C128.936 61.92 129.736 60.288 130.312 58.944C131.08 58.944 131.464 59.232 131.464 59.808C130.632 61.6 129.672 63.552 128.584 65.664C127.56 67.776 126.312 69.76 124.84 71.616C123.432 73.408 121.704 74.912 119.656 76.128C117.672 77.28 115.336 77.856 112.648 77.856ZM110.92 60.96C111.816 60.96 113.32 60.64 115.432 60C117.544 59.296 119.464 58.208 121.192 56.736C122.856 55.264 124.136 53.664 125.032 51.936C125.928 50.144 126.376 48.64 126.376 47.424C126.376 46.016 125.864 45.312 124.84 45.312C124.072 45.312 123.016 45.824 121.672 46.848C120.328 47.872 118.664 49.6 116.68 52.032C115.464 53.568 114.312 55.232 113.224 57.024C112.136 58.816 111.368 60.128 110.92 60.96ZM132.315 77.856C129.691 77.856 127.547 77.056 125.883 75.456C124.283 73.792 123.483 72.064 123.483 70.272C123.483 68.8 123.867 67.456 124.635 66.24C125.339 64.96 126.299 64.32 127.515 64.32L127.611 64.128C129.019 61.568 130.363 58.976 131.643 56.352C132.987 53.664 134.459 50.816 136.059 47.808C137.403 45.312 138.843 43.264 140.379 41.664C141.979 40.064 143.835 39.264 145.947 39.264C146.459 39.264 147.163 39.392 148.059 39.648C148.955 39.84 149.403 40.288 149.403 40.992C149.403 41.504 149.115 41.76 148.539 41.76C148.091 41.76 147.579 41.632 147.003 41.376C146.491 41.12 146.075 40.992 145.755 40.992C144.539 40.992 143.515 41.696 142.683 43.104C141.851 44.512 141.435 46.016 141.435 47.616C141.435 49.344 141.723 50.912 142.299 52.32C142.875 53.664 143.547 54.976 144.315 56.256C145.083 57.536 145.755 58.848 146.331 60.192C146.907 61.472 147.195 62.88 147.195 64.416C147.195 67.488 146.587 69.984 145.371 71.904C144.219 73.76 142.683 75.168 140.763 76.128H140.859C144.251 76.128 147.035 74.56 149.211 71.424C151.451 68.224 153.659 64.064 155.835 58.944C156.603 58.944 156.987 59.232 156.987 59.808C155.771 62.688 154.427 65.504 152.955 68.256C151.483 71.008 149.755 73.28 147.771 75.072C145.787 76.864 143.355 77.76 140.475 77.76C139.259 77.76 138.139 77.632 137.115 77.376C135.643 77.696 134.043 77.856 132.315 77.856ZM130.875 67.68C130.875 69.216 131.227 70.688 131.931 72.096C132.635 73.504 133.915 74.56 135.771 75.264C137.435 74.304 138.715 72.832 139.611 70.848C140.571 68.8 141.051 66.688 141.051 64.512C141.051 62.72 140.859 60.896 140.475 59.04C140.091 57.184 139.675 55.36 139.227 53.568C138.843 51.776 138.651 50.176 138.651 48.768C138.651 48.32 138.651 47.936 138.651 47.616C138.715 47.232 138.779 46.88 138.843 46.56C137.691 48.288 136.507 50.304 135.291 52.608C134.139 54.912 133.019 57.12 131.931 59.232C130.843 61.344 129.851 63.072 128.955 64.416C130.235 64.608 130.875 65.696 130.875 67.68ZM127.707 72.48C127.707 73.504 128.059 74.4 128.763 75.168C129.467 75.936 130.523 76.32 131.931 76.32C132.571 76.32 133.179 76.256 133.755 76.128C132.411 75.296 131.323 74.24 130.491 72.96C129.723 71.68 129.339 70.208 129.339 68.544C128.763 69.184 128.347 69.856 128.091 70.56C127.835 71.2 127.707 71.84 127.707 72.48ZM157.909 77.856C155.285 77.856 153.141 77.056 151.477 75.456C149.877 73.792 149.077 72.064 149.077 70.272C149.077 68.8 149.461 67.456 150.229 66.24C150.933 64.96 151.893 64.32 153.109 64.32L153.205 64.128C154.613 61.568 155.957 58.976 157.237 56.352C158.581 53.664 160.053 50.816 161.653 47.808C162.997 45.312 164.437 43.264 165.973 41.664C167.573 40.064 169.429 39.264 171.541 39.264C172.053 39.264 172.757 39.392 173.653 39.648C174.549 39.84 174.997 40.288 174.997 40.992C174.997 41.504 174.709 41.76 174.133 41.76C173.685 41.76 173.173 41.632 172.597 41.376C172.085 41.12 171.669 40.992 171.349 40.992C170.133 40.992 169.109 41.696 168.277 43.104C167.445 44.512 167.029 46.016 167.029 47.616C167.029 49.344 167.317 50.912 167.893 52.32C168.469 53.664 169.141 54.976 169.909 56.256C170.677 57.536 171.349 58.848 171.925 60.192C172.501 61.472 172.789 62.88 172.789 64.416C172.789 67.488 172.181 69.984 170.965 71.904C169.813 73.76 168.277 75.168 166.357 76.128H166.453C169.845 76.128 172.629 74.56 174.805 71.424C177.045 68.224 179.253 64.064 181.429 58.944C182.197 58.944 182.581 59.232 182.581 59.808C181.365 62.688 180.021 65.504 178.549 68.256C177.077 71.008 175.349 73.28 173.365 75.072C171.381 76.864 168.949 77.76 166.069 77.76C164.853 77.76 163.733 77.632 162.709 77.376C161.237 77.696 159.637 77.856 157.909 77.856ZM156.469 67.68C156.469 69.216 156.821 70.688 157.525 72.096C158.229 73.504 159.509 74.56 161.365 75.264C163.029 74.304 164.309 72.832 165.205 70.848C166.165 68.8 166.645 66.688 166.645 64.512C166.645 62.72 166.453 60.896 166.069 59.04C165.685 57.184 165.269 55.36 164.821 53.568C164.437 51.776 164.245 50.176 164.245 48.768C164.245 48.32 164.245 47.936 164.245 47.616C164.309 47.232 164.373 46.88 164.437 46.56C163.285 48.288 162.101 50.304 160.885 52.608C159.733 54.912 158.613 57.12 157.525 59.232C156.437 61.344 155.445 63.072 154.549 64.416C155.829 64.608 156.469 65.696 156.469 67.68ZM153.301 72.48C153.301 73.504 153.653 74.4 154.357 75.168C155.061 75.936 156.117 76.32 157.525 76.32C158.165 76.32 158.773 76.256 159.349 76.128C158.005 75.296 156.917 74.24 156.085 72.96C155.317 71.68 154.933 70.208 154.933 68.544C154.357 69.184 153.941 69.856 153.685 70.56C153.429 71.2 153.301 71.84 153.301 72.48ZM188.398 77.856C186.03 77.856 183.886 77.088 181.966 75.552C180.11 74.016 179.182 71.68 179.182 68.544C179.182 65.92 179.758 63.136 180.91 60.192C182.126 57.248 183.694 54.496 185.614 51.936C187.598 49.312 189.774 47.2 192.142 45.6C194.574 43.936 197.006 43.104 199.438 43.104C200.654 43.104 201.838 43.456 202.99 44.16C204.142 44.864 204.718 46.08 204.718 47.808C204.718 49.408 204.11 51.168 202.894 53.088C201.678 55.008 199.95 56.8 197.71 58.464C196.75 59.168 195.534 59.84 194.062 60.48C192.59 61.12 191.118 61.664 189.646 62.112C188.174 62.496 186.958 62.688 185.998 62.688C185.678 63.456 185.358 64.48 185.038 65.76C184.782 67.04 184.654 68.352 184.654 69.696C184.654 71.296 184.974 72.736 185.614 74.016C186.254 75.296 187.438 75.936 189.166 75.936C191.278 75.936 193.23 75.328 195.022 74.112C196.878 72.896 198.51 71.36 199.918 69.504C201.39 67.648 202.638 65.76 203.662 63.84C204.686 61.92 205.486 60.288 206.062 58.944C206.83 58.944 207.214 59.232 207.214 59.808C206.382 61.6 205.422 63.552 204.334 65.664C203.31 67.776 202.062 69.76 200.59 71.616C199.182 73.408 197.454 74.912 195.406 76.128C193.422 77.28 191.086 77.856 188.398 77.856ZM186.67 60.96C187.566 60.96 189.07 60.64 191.182 60C193.294 59.296 195.214 58.208 196.942 56.736C198.606 55.264 199.886 53.664 200.782 51.936C201.678 50.144 202.126 48.64 202.126 47.424C202.126 46.016 201.614 45.312 200.59 45.312C199.822 45.312 198.766 45.824 197.422 46.848C196.078 47.872 194.414 49.6 192.43 52.032C191.214 53.568 190.062 55.232 188.974 57.024C187.886 58.816 187.118 60.128 186.67 60.96Z" fill="black"/>
</svg>
