<svg width="277" height="153" viewBox="0 0 277 153" fill="none" xmlns="http://www.w3.org/2000/svg">
<path d="M251.198 103.808C248.041 103.808 245.182 102.784 242.622 100.736C240.147 98.688 238.91 95.5733 238.91 91.392C238.91 87.8933 239.678 84.1813 241.214 80.256C242.835 76.3307 244.926 72.6613 247.486 69.248C250.131 65.7493 253.033 62.9333 256.19 60.8C259.433 58.5813 262.675 57.472 265.918 57.472C267.539 57.472 269.118 57.9413 270.654 58.88C272.19 59.8187 272.958 61.44 272.958 63.744C272.958 65.8773 272.147 68.224 270.526 70.784C268.905 73.344 266.601 75.7333 263.614 77.952C262.334 78.8907 260.713 79.7867 258.75 80.64C256.787 81.4933 254.825 82.2187 252.862 82.816C250.899 83.328 249.278 83.584 247.998 83.584C247.571 84.608 247.145 85.9733 246.718 87.68C246.377 89.3867 246.206 91.136 246.206 92.928C246.206 95.0613 246.633 96.9813 247.486 98.688C248.339 100.395 249.918 101.248 252.222 101.248C255.038 101.248 257.641 100.437 260.03 98.816C262.505 97.1947 264.681 95.1467 266.558 92.672C268.521 90.1973 270.185 87.68 271.55 85.12C272.915 82.56 273.982 80.384 274.75 78.592C275.774 78.592 276.286 78.976 276.286 79.744C275.177 82.1333 273.897 84.736 272.446 87.552C271.081 90.368 269.417 93.0133 267.454 95.488C265.577 97.8773 263.273 99.8827 260.542 101.504C257.897 103.04 254.782 103.808 251.198 103.808ZM248.894 81.28C250.089 81.28 252.094 80.8533 254.91 80C257.726 79.0613 260.286 77.6107 262.59 75.648C264.809 73.6853 266.515 71.552 267.71 69.248C268.905 66.8587 269.502 64.8533 269.502 63.232C269.502 61.3547 268.819 60.416 267.454 60.416C266.43 60.416 265.022 61.0987 263.23 62.464C261.438 63.8293 259.219 66.1333 256.574 69.376C254.953 71.424 253.417 73.6427 251.966 76.032C250.515 78.4213 249.491 80.1707 248.894 81.28Z" fill="#4A2E1A"/>
<path d="M210.545 103.808C207.046 103.808 204.188 102.741 201.969 100.608C199.836 98.3893 198.769 96.0853 198.769 93.696C198.769 91.7333 199.281 89.9413 200.305 88.32C201.244 86.6133 202.524 85.76 204.145 85.76L204.273 85.504C206.15 82.0907 207.942 78.6347 209.649 75.136C211.441 71.552 213.404 67.7547 215.537 63.744C217.329 60.416 219.249 57.6853 221.297 55.552C223.43 53.4187 225.905 52.352 228.721 52.352C229.404 52.352 230.342 52.5227 231.537 52.864C232.732 53.12 233.329 53.7173 233.329 54.656C233.329 55.3387 232.945 55.68 232.177 55.68C231.58 55.68 230.897 55.5093 230.129 55.168C229.446 54.8267 228.892 54.656 228.465 54.656C226.844 54.656 225.478 55.5947 224.369 57.472C223.26 59.3493 222.705 61.3547 222.705 63.488C222.705 65.792 223.089 67.8827 223.857 69.76C224.625 71.552 225.521 73.3013 226.545 75.008C227.569 76.7147 228.465 78.464 229.233 80.256C230.001 81.9627 230.385 83.84 230.385 85.888C230.385 89.984 229.574 93.312 227.953 95.872C226.417 98.3467 224.369 100.224 221.809 101.504H221.937C226.46 101.504 230.172 99.4133 233.073 95.232C236.06 90.9653 239.004 85.4187 241.905 78.592C242.929 78.592 243.441 78.976 243.441 79.744C241.82 83.584 240.028 87.3387 238.065 91.008C236.102 94.6773 233.798 97.7067 231.153 100.096C228.508 102.485 225.265 103.68 221.425 103.68C219.804 103.68 218.31 103.509 216.945 103.168C214.982 103.595 212.849 103.808 210.545 103.808ZM208.625 90.24C208.625 92.288 209.094 94.2507 210.033 96.128C210.972 98.0053 212.678 99.4133 215.153 100.352C217.372 99.072 219.078 97.1093 220.273 94.464C221.553 91.7333 222.193 88.9173 222.193 86.016C222.193 83.6267 221.937 81.1947 221.425 78.72C220.913 76.2453 220.358 73.8133 219.761 71.424C219.249 69.0347 218.993 66.9013 218.993 65.024C218.993 64.4267 218.993 63.9147 218.993 63.488C219.078 62.976 219.164 62.5067 219.249 62.08C217.713 64.384 216.134 67.072 214.513 70.144C212.977 73.216 211.484 76.16 210.033 78.976C208.582 81.792 207.26 84.096 206.065 85.888C207.772 86.144 208.625 87.5947 208.625 90.24ZM204.401 96.64C204.401 98.0053 204.87 99.2 205.809 100.224C206.748 101.248 208.156 101.76 210.033 101.76C210.886 101.76 211.697 101.675 212.465 101.504C210.673 100.395 209.222 98.9867 208.113 97.28C207.089 95.5733 206.577 93.6107 206.577 91.392C205.809 92.2453 205.254 93.1413 204.913 94.08C204.572 94.9333 204.401 95.7867 204.401 96.64Z" fill="#4A2E1A"/>
<path d="M176.42 103.808C172.921 103.808 170.063 102.741 167.844 100.608C165.711 98.3893 164.644 96.0853 164.644 93.696C164.644 91.7333 165.156 89.9413 166.18 88.32C167.119 86.6133 168.399 85.76 170.02 85.76L170.148 85.504C172.025 82.0907 173.817 78.6347 175.524 75.136C177.316 71.552 179.279 67.7547 181.412 63.744C183.204 60.416 185.124 57.6853 187.172 55.552C189.305 53.4187 191.78 52.352 194.596 52.352C195.279 52.352 196.217 52.5227 197.412 52.864C198.607 53.12 199.204 53.7173 199.204 54.656C199.204 55.3387 198.82 55.68 198.052 55.68C197.455 55.68 196.772 55.5093 196.004 55.168C195.321 54.8267 194.767 54.656 194.34 54.656C192.719 54.656 191.353 55.5947 190.244 57.472C189.135 59.3493 188.58 61.3547 188.58 63.488C188.58 65.792 188.964 67.8827 189.732 69.76C190.5 71.552 191.396 73.3013 192.42 75.008C193.444 76.7147 194.34 78.464 195.108 80.256C195.876 81.9627 196.26 83.84 196.26 85.888C196.26 89.984 195.449 93.312 193.828 95.872C192.292 98.3467 190.244 100.224 187.684 101.504H187.812C192.335 101.504 196.047 99.4133 198.948 95.232C201.935 90.9653 204.879 85.4187 207.78 78.592C208.804 78.592 209.316 78.976 209.316 79.744C207.695 83.584 205.903 87.3387 203.94 91.008C201.977 94.6773 199.673 97.7067 197.028 100.096C194.383 102.485 191.14 103.68 187.3 103.68C185.679 103.68 184.185 103.509 182.82 103.168C180.857 103.595 178.724 103.808 176.42 103.808ZM174.5 90.24C174.5 92.288 174.969 94.2507 175.908 96.128C176.847 98.0053 178.553 99.4133 181.028 100.352C183.247 99.072 184.953 97.1093 186.148 94.464C187.428 91.7333 188.068 88.9173 188.068 86.016C188.068 83.6267 187.812 81.1947 187.3 78.72C186.788 76.2453 186.233 73.8133 185.636 71.424C185.124 69.0347 184.868 66.9013 184.868 65.024C184.868 64.4267 184.868 63.9147 184.868 63.488C184.953 62.976 185.039 62.5067 185.124 62.08C183.588 64.384 182.009 67.072 180.388 70.144C178.852 73.216 177.359 76.16 175.908 78.976C174.457 81.792 173.135 84.096 171.94 85.888C173.647 86.144 174.5 87.5947 174.5 90.24ZM170.276 96.64C170.276 98.0053 170.745 99.2 171.684 100.224C172.623 101.248 174.031 101.76 175.908 101.76C176.761 101.76 177.572 101.675 178.34 101.504C176.548 100.395 175.097 98.9867 173.988 97.28C172.964 95.5733 172.452 93.6107 172.452 91.392C171.684 92.2453 171.129 93.1413 170.788 94.08C170.447 94.9333 170.276 95.7867 170.276 96.64Z" fill="#4A2E1A"/>
<path d="M150.198 103.808C147.041 103.808 144.182 102.784 141.622 100.736C139.147 98.688 137.91 95.5733 137.91 91.392C137.91 87.8933 138.678 84.1813 140.214 80.256C141.835 76.3307 143.926 72.6613 146.486 69.248C149.131 65.7493 152.033 62.9333 155.19 60.8C158.433 58.5813 161.675 57.472 164.918 57.472C166.539 57.472 168.118 57.9413 169.654 58.88C171.19 59.8187 171.958 61.44 171.958 63.744C171.958 65.8773 171.147 68.224 169.526 70.784C167.905 73.344 165.601 75.7333 162.614 77.952C161.334 78.8907 159.713 79.7867 157.75 80.64C155.787 81.4933 153.825 82.2187 151.862 82.816C149.899 83.328 148.278 83.584 146.998 83.584C146.571 84.608 146.145 85.9733 145.718 87.68C145.377 89.3867 145.206 91.136 145.206 92.928C145.206 95.0613 145.633 96.9813 146.486 98.688C147.339 100.395 148.918 101.248 151.222 101.248C154.038 101.248 156.641 100.437 159.03 98.816C161.505 97.1947 163.681 95.1467 165.558 92.672C167.521 90.1973 169.185 87.68 170.55 85.12C171.915 82.56 172.982 80.384 173.75 78.592C174.774 78.592 175.286 78.976 175.286 79.744C174.177 82.1333 172.897 84.736 171.446 87.552C170.081 90.368 168.417 93.0133 166.454 95.488C164.577 97.8773 162.273 99.8827 159.542 101.504C156.897 103.04 153.782 103.808 150.198 103.808ZM147.894 81.28C149.089 81.28 151.094 80.8533 153.91 80C156.726 79.0613 159.286 77.6107 161.59 75.648C163.809 73.6853 165.515 71.552 166.71 69.248C167.905 66.8587 168.502 64.8533 168.502 63.232C168.502 61.3547 167.819 60.416 166.454 60.416C165.43 60.416 164.022 61.0987 162.23 62.464C160.438 63.8293 158.219 66.1333 155.574 69.376C153.953 71.424 152.417 73.6427 150.966 76.032C149.515 78.4213 148.491 80.1707 147.894 81.28Z" fill="#4A2E1A"/>
<path d="M43.136 152.192C35.0293 152.192 27.6907 150.827 21.12 148.096C14.6347 145.365 9.51467 141.397 5.76 136.192C1.92 130.987 0 124.715 0 117.376C0 110.549 1.32267 104.96 3.968 100.608C6.61333 96.1707 9.51467 92.8427 12.672 90.624C14.464 89.344 16.128 88.448 17.664 87.936C19.2 87.3387 20.224 87.04 20.736 87.04C21.248 87.04 21.504 87.2533 21.504 87.68C21.504 88.1067 21.2907 88.448 20.864 88.704C16.4267 91.3493 13.0133 95.104 10.624 99.968C8.32 104.832 7.168 110.165 7.168 115.968C7.168 122.624 8.704 128.384 11.776 133.248C14.848 138.197 19.1147 141.995 24.576 144.64C30.0373 147.285 36.352 148.608 43.52 148.608C55.6373 148.608 67.2 143.829 78.208 134.272C89.216 124.715 99.84 111.403 110.08 94.336C113.92 87.7653 117.547 80.9813 120.96 73.984C124.373 66.9867 127.616 60.0747 130.688 53.248C133.76 46.592 136.661 40.6187 139.392 35.328C142.208 29.952 144.64 25.4293 146.688 21.76C148.821 18.0907 150.357 15.5307 151.296 14.08C129.707 16.9813 112.981 21.5893 101.12 27.904C89.344 34.2187 83.456 42.3253 83.456 52.224C83.456 57.344 84.7787 61.184 87.424 63.744C90.0693 66.2187 93.0987 67.456 96.512 67.456C99.84 67.456 103.168 66.3893 106.496 64.256C109.909 62.1227 112.725 59.1787 114.944 55.424C117.248 51.584 118.4 47.1467 118.4 42.112C118.4 39.6373 117.632 37.632 116.096 36.096C116.096 35.2427 116.523 34.816 117.376 34.816C118.4 34.816 119.296 35.584 120.064 37.12C120.917 38.656 121.344 40.576 121.344 42.88C121.344 48.5973 119.979 53.5467 117.248 57.728C114.603 61.824 111.189 64.9813 107.008 67.2C102.912 69.4187 98.688 70.528 94.336 70.528C91.008 70.528 87.8507 69.8027 84.864 68.352C81.8773 66.9013 79.4027 64.6827 77.44 61.696C75.5627 58.7093 74.624 54.9973 74.624 50.56C74.624 44.7573 76.544 39.7227 80.384 35.456C84.3093 31.104 89.7707 27.392 96.768 24.32C103.851 21.248 112.171 18.6027 121.728 16.384C131.371 14.1653 141.952 12.2453 153.472 10.624C155.861 7.296 158.037 4.69334 160 2.816C162.048 0.938667 164.267 0 166.656 0C168.021 0 169.088 0.341334 169.856 1.024C170.709 1.70667 171.136 2.73067 171.136 4.096C171.136 6.05867 170.325 7.68 168.704 8.96C167.083 10.1547 165.035 11.136 162.56 11.904C160.085 12.5867 157.611 13.1413 155.136 13.568C151.979 19.0293 149.205 24.6613 146.816 30.464C144.512 36.1813 142.336 42.0693 140.288 48.128C138.325 54.1013 136.192 60.2453 133.888 66.56C131.669 72.7893 129.024 79.1893 125.952 85.76C119.552 99.328 112.171 111.061 103.808 120.96C95.4453 130.944 86.1867 138.624 76.032 144C65.8773 149.461 54.912 152.192 43.136 152.192ZM157.44 10.368C160.939 9.77067 163.285 9.04533 164.48 8.192C165.675 7.25334 166.272 6.4 166.272 5.632C166.272 4.608 165.76 4.096 164.736 4.096C163.797 4.096 162.645 4.82133 161.28 6.272C160 7.63733 158.72 9.00267 157.44 10.368Z" fill="#4A2E1A"/>
</svg>
